<svg width="50" height="50" viewBox="0 0 50 50" fill="none" xmlns="http://www.w3.org/2000/svg">
<path d="M18.3854 25L21.4583 21.9271C21.875 21.5104 22.0833 21.0243 22.0833 20.4687C22.0833 19.9132 21.875 19.4271 21.4583 19.0104C21.0417 18.5937 20.5472 18.3854 19.975 18.3854C19.4014 18.3854 18.9062 18.5937 18.4896 19.0104L13.9583 23.5417C13.75 23.75 13.6028 23.9757 13.5167 24.2187C13.4292 24.4618 13.3854 24.7222 13.3854 25C13.3854 25.2778 13.4292 25.5382 13.5167 25.7812C13.6028 26.0243 13.75 26.25 13.9583 26.4583L18.4896 30.9896C18.9062 31.4062 19.4014 31.6146 19.975 31.6146C20.5472 31.6146 21.0417 31.4062 21.4583 30.9896C21.875 30.5729 22.0833 30.0868 22.0833 29.5312C22.0833 28.9757 21.875 28.4896 21.4583 28.0729L18.3854 25ZM31.6146 25L28.5417 28.0729C28.125 28.4896 27.9167 28.9757 27.9167 29.5312C27.9167 30.0868 28.125 30.5729 28.5417 30.9896C28.9583 31.4062 29.4535 31.6146 30.0271 31.6146C30.5993 31.6146 31.0937 31.4062 31.5104 30.9896L36.0417 26.4583C36.25 26.25 36.3972 26.0243 36.4833 25.7812C36.5708 25.5382 36.6146 25.2778 36.6146 25C36.6146 24.7222 36.5708 24.4618 36.4833 24.2187C36.3972 23.9757 36.25 23.75 36.0417 23.5417L31.5104 19.0104C31.3021 18.8021 31.0681 18.6458 30.8083 18.5417C30.5472 18.4375 30.2868 18.3854 30.0271 18.3854C29.766 18.3854 29.5056 18.4375 29.2458 18.5417C28.9847 18.6458 28.75 18.8021 28.5417 19.0104C28.125 19.4271 27.9167 19.9132 27.9167 20.4687C27.9167 21.0243 28.125 21.5104 28.5417 21.9271L31.6146 25ZM10.4167 43.75C9.27083 43.75 8.28958 43.3424 7.47292 42.5271C6.65764 41.7104 6.25 40.7292 6.25 39.5833V10.4167C6.25 9.27083 6.65764 8.28958 7.47292 7.47292C8.28958 6.65764 9.27083 6.25 10.4167 6.25H39.5833C40.7292 6.25 41.7104 6.65764 42.5271 7.47292C43.3424 8.28958 43.75 9.27083 43.75 10.4167V39.5833C43.75 40.7292 43.3424 41.7104 42.5271 42.5271C41.7104 43.3424 40.7292 43.75 39.5833 43.75H10.4167Z" fill="#F0ECE2"/>
</svg>
