<svg width="50" height="50" viewBox="0 0 50 50" fill="none" xmlns="http://www.w3.org/2000/svg">
<path d="M25 4.16675C22.2641 4.16675 19.555 4.70562 17.0274 5.75259C14.4998 6.79956 12.2032 8.33414 10.2686 10.2687C6.3616 14.1757 4.16666 19.4747 4.16666 25.0001C4.16666 34.2084 10.1458 42.0209 18.4167 44.7917C19.4583 44.9584 19.7917 44.3126 19.7917 43.7501V40.2292C14.0208 41.4792 12.7917 37.4376 12.7917 37.4376C11.8333 35.0209 10.4792 34.3751 10.4792 34.3751C8.58333 33.0834 10.625 33.1251 10.625 33.1251C12.7083 33.2709 13.8125 35.2709 13.8125 35.2709C15.625 38.4376 18.6875 37.5001 19.875 37.0001C20.0625 35.6459 20.6042 34.7292 21.1875 34.2084C16.5625 33.6876 11.7083 31.8959 11.7083 23.9584C11.7083 21.6459 12.5 19.7917 13.8542 18.3126C13.6458 17.7917 12.9167 15.6251 14.0625 12.8126C14.0625 12.8126 15.8125 12.2501 19.7917 14.9376C21.4375 14.4792 23.2292 14.2501 25 14.2501C26.7708 14.2501 28.5625 14.4792 30.2083 14.9376C34.1875 12.2501 35.9375 12.8126 35.9375 12.8126C37.0833 15.6251 36.3542 17.7917 36.1458 18.3126C37.5 19.7917 38.2917 21.6459 38.2917 23.9584C38.2917 31.9167 33.4167 33.6667 28.7708 34.1876C29.5208 34.8334 30.2083 36.1042 30.2083 38.0417V43.7501C30.2083 44.3126 30.5417 44.9792 31.6042 44.7917C39.875 42.0001 45.8333 34.2084 45.8333 25.0001C45.8333 22.2642 45.2945 19.5551 44.2475 17.0275C43.2005 14.4999 41.6659 12.2032 39.7314 10.2687C37.7968 8.33414 35.5002 6.79956 32.9726 5.75259C30.445 4.70562 27.7359 4.16675 25 4.16675V4.16675Z" fill="#F0ECE2"/>
</svg>
