<svg width="50" height="50" viewBox="0 0 50 50" fill="none" xmlns="http://www.w3.org/2000/svg">
<path d="M25 4.16675C30.6604 4.16675 31.3667 4.18758 33.5875 4.29175C35.8062 4.39591 37.3167 4.74383 38.6458 5.2605C40.0208 5.78967 41.1792 6.50633 42.3375 7.66258C43.3969 8.70403 44.2166 9.96381 44.7396 11.3542C45.2542 12.6813 45.6042 14.1938 45.7083 16.4126C45.8063 18.6334 45.8333 19.3397 45.8333 25.0001C45.8333 30.6605 45.8125 31.3667 45.7083 33.5876C45.6042 35.8063 45.2542 37.3167 44.7396 38.6459C44.2181 40.0371 43.3982 41.2972 42.3375 42.3376C41.2958 43.3966 40.0361 44.2162 38.6458 44.7397C37.3187 45.2543 35.8062 45.6043 33.5875 45.7084C31.3667 45.8063 30.6604 45.8334 25 45.8334C19.3396 45.8334 18.6333 45.8126 16.4125 45.7084C14.1937 45.6043 12.6833 45.2543 11.3542 44.7397C9.96318 44.2177 8.70318 43.3979 7.6625 42.3376C6.60293 41.2963 5.78319 40.0365 5.26041 38.6459C4.74375 37.3188 4.39583 35.8063 4.29166 33.5876C4.19375 31.3667 4.16666 30.6605 4.16666 25.0001C4.16666 19.3397 4.1875 18.6334 4.29166 16.4126C4.39583 14.1917 4.74375 12.6834 5.26041 11.3542C5.78174 9.96296 6.60167 8.70283 7.6625 7.66258C8.70348 6.60265 9.96339 5.78285 11.3542 5.2605C12.6833 4.74383 14.1917 4.39591 16.4125 4.29175C18.6333 4.19383 19.3396 4.16675 25 4.16675ZM25 14.5834C22.2373 14.5834 19.5878 15.6809 17.6343 17.6344C15.6808 19.5879 14.5833 22.2374 14.5833 25.0001C14.5833 27.7628 15.6808 30.4123 17.6343 32.3658C19.5878 34.3193 22.2373 35.4168 25 35.4168C27.7627 35.4168 30.4122 34.3193 32.3657 32.3658C34.3192 30.4123 35.4167 27.7628 35.4167 25.0001C35.4167 22.2374 34.3192 19.5879 32.3657 17.6344C30.4122 15.6809 27.7627 14.5834 25 14.5834V14.5834ZM38.5417 14.0626C38.5417 13.3719 38.2673 12.7095 37.7789 12.2212C37.2905 11.7328 36.6282 11.4584 35.9375 11.4584C35.2468 11.4584 34.5844 11.7328 34.0961 12.2212C33.6077 12.7095 33.3333 13.3719 33.3333 14.0626C33.3333 14.7533 33.6077 15.4156 34.0961 15.904C34.5844 16.3924 35.2468 16.6667 35.9375 16.6667C36.6282 16.6667 37.2905 16.3924 37.7789 15.904C38.2673 15.4156 38.5417 14.7533 38.5417 14.0626ZM25 18.7501C26.6576 18.7501 28.2473 19.4086 29.4194 20.5807C30.5915 21.7528 31.25 23.3425 31.25 25.0001C31.25 26.6577 30.5915 28.2474 29.4194 29.4195C28.2473 30.5916 26.6576 31.2501 25 31.2501C23.3424 31.2501 21.7527 30.5916 20.5806 29.4195C19.4085 28.2474 18.75 26.6577 18.75 25.0001C18.75 23.3425 19.4085 21.7528 20.5806 20.5807C21.7527 19.4086 23.3424 18.7501 25 18.7501V18.7501Z" fill="#F0ECE2"/>
</svg>
