<svg width="50" height="50" viewBox="0 0 50 50" fill="none" xmlns="http://www.w3.org/2000/svg">
<g clip-path="url(#clip0_2_112)">
<path fill-rule="evenodd" clip-rule="evenodd" d="M37.5 6.25C39.1576 6.25 40.7473 6.90848 41.9194 8.08058C43.0915 9.25269 43.75 10.8424 43.75 12.5V37.5C43.75 39.1576 43.0915 40.7473 41.9194 41.9194C40.7473 43.0915 39.1576 43.75 37.5 43.75H12.5C10.8424 43.75 9.25269 43.0915 8.08058 41.9194C6.90848 40.7473 6.25 39.1576 6.25 37.5V12.5C6.25 10.8424 6.90848 9.25269 8.08058 8.08058C9.25269 6.90848 10.8424 6.25 12.5 6.25H37.5ZM16.6667 20.8333C16.1141 20.8333 15.5842 21.0528 15.1935 21.4435C14.8028 21.8342 14.5833 22.3641 14.5833 22.9167V33.3333C14.5833 33.8859 14.8028 34.4158 15.1935 34.8065C15.5842 35.1972 16.1141 35.4167 16.6667 35.4167C17.2192 35.4167 17.7491 35.1972 18.1398 34.8065C18.5305 34.4158 18.75 33.8859 18.75 33.3333V22.9167C18.75 22.3641 18.5305 21.8342 18.1398 21.4435C17.7491 21.0528 17.2192 20.8333 16.6667 20.8333V20.8333ZM22.9167 18.75C22.3641 18.75 21.8342 18.9695 21.4435 19.3602C21.0528 19.7509 20.8333 20.2808 20.8333 20.8333V33.3333C20.8333 33.8859 21.0528 34.4158 21.4435 34.8065C21.8342 35.1972 22.3641 35.4167 22.9167 35.4167C23.4692 35.4167 23.9991 35.1972 24.3898 34.8065C24.7805 34.4158 25 33.8859 25 33.3333V25.7083C25.8128 24.8242 26.8012 24.1196 27.9021 23.6396C28.5958 23.3437 29.6396 23.2229 30.3646 23.4521C30.6051 23.5131 30.8193 23.6505 30.975 23.8437C31.0833 23.9896 31.25 24.3146 31.25 25V33.3333C31.25 33.8859 31.4695 34.4158 31.8602 34.8065C32.2509 35.1972 32.7808 35.4167 33.3333 35.4167C33.8859 35.4167 34.4158 35.1972 34.8065 34.8065C35.1972 34.4158 35.4167 33.8859 35.4167 33.3333V25C35.4167 23.6042 35.0625 22.3625 34.325 21.3667C33.6464 20.4637 32.6966 19.8015 31.6146 19.4771C29.7354 18.8875 27.6542 19.2146 26.2646 19.8104C25.8194 20.001 25.3859 20.218 24.9667 20.4604C24.8793 19.9804 24.6263 19.5462 24.2517 19.2337C23.877 18.9211 23.4046 18.7499 22.9167 18.75V18.75ZM16.6667 14.5833C16.1141 14.5833 15.5842 14.8028 15.1935 15.1935C14.8028 15.5842 14.5833 16.1141 14.5833 16.6667C14.5833 17.2192 14.8028 17.7491 15.1935 18.1398C15.5842 18.5305 16.1141 18.75 16.6667 18.75C17.2192 18.75 17.7491 18.5305 18.1398 18.1398C18.5305 17.7491 18.75 17.2192 18.75 16.6667C18.75 16.1141 18.5305 15.5842 18.1398 15.1935C17.7491 14.8028 17.2192 14.5833 16.6667 14.5833V14.5833Z" fill="#F0ECE2"/>
</g>
<defs>
<clipPath id="clip0_2_112">
<rect width="50" height="50" fill="white"/>
</clipPath>
</defs>
</svg>
