<svg width="50" height="50" viewBox="0 0 50 50" fill="none" xmlns="http://www.w3.org/2000/svg">
<path d="M25 25C22.7083 25 20.7465 24.184 19.1146 22.5521C17.4826 20.9201 16.6667 18.9583 16.6667 16.6667C16.6667 14.375 17.4826 12.4132 19.1146 10.7812C20.7465 9.1493 22.7083 8.33333 25 8.33333C27.2917 8.33333 29.2535 9.1493 30.8854 10.7812C32.5174 12.4132 33.3333 14.375 33.3333 16.6667C33.3333 18.9583 32.5174 20.9201 30.8854 22.5521C29.2535 24.184 27.2917 25 25 25ZM8.33334 41.6667V35.8333C8.33334 34.6528 8.63751 33.5674 9.24584 32.5771C9.85279 31.5882 10.6597 30.8333 11.6667 30.3125C13.8195 29.2361 16.007 28.4285 18.2292 27.8896C20.4514 27.3521 22.7083 27.0833 25 27.0833C27.2917 27.0833 29.5486 27.3521 31.7708 27.8896C33.9931 28.4285 36.1806 29.2361 38.3333 30.3125C39.3403 30.8333 40.1472 31.5882 40.7542 32.5771C41.3625 33.5674 41.6667 34.6528 41.6667 35.8333V41.6667H8.33334Z" fill="#F0ECE2"/>
</svg>
